<?xml version="1.0" encoding="UTF-8" standalone="no"?><!DOCTYPE svg PUBLIC "-//W3C//DTD SVG 1.1//EN" "http://www.w3.org/Graphics/SVG/1.1/DTD/svg11.dtd"><svg width="100%" height="100%" viewBox="0 0 863 474" version="1.1" xmlns="http://www.w3.org/2000/svg" xmlns:xlink="http://www.w3.org/1999/xlink" xml:space="preserve" xmlns:serif="http://www.serif.com/" style="fill-rule:evenodd;clip-rule:evenodd;stroke-linecap:round;stroke-linejoin:round;stroke-miterlimit:1.5;"><rect id="UDP--donnée-labo-1-" serif:id="UDP (donnée labo 1)" x="0" y="0" width="862.099" height="473.468" style="fill:#fff;"/><path d="M340.27,247.296l12.503,4.864l-11.393,7.084c2.709,-3.264 2.154,-9.239 -1.11,-11.948Z" style="fill:#82b0ef;"/><path d="M280.612,312.206c23.801,-0.528 26.961,-13.8 36.079,-30.223c7.524,-13.552 10.657,-25.633 26.523,-28.935" style="fill:none;stroke:#82b0ef;stroke-width:2px;"/><path d="M823.091,165.645c0,-6.68 -5.423,-12.103 -12.103,-12.103l-148.5,-0c-6.68,-0 -12.103,5.423 -12.103,12.103l-0,68.799c-0,6.68 5.423,12.103 12.103,12.103l148.5,0c6.68,0 12.103,-5.423 12.103,-12.103l0,-68.799Z" style="fill:none;stroke:#8b8b8b;stroke-width:2px;stroke-linecap:square;"/><path d="M579.268,83.949c0,-7.64 -6.203,-13.843 -13.843,-13.843l-180.345,-0c-7.641,-0 -13.844,6.203 -13.844,13.843l0,170.558c0,7.64 6.203,13.843 13.844,13.843l180.345,-0c7.64,-0 13.843,-6.203 13.843,-13.843l0,-170.558Z" style="fill:none;stroke:#8b8b8b;stroke-width:2px;stroke-linecap:square;"/><rect x="352.714" y="174.114" width="41.285" height="87.387" style="fill:#fff;"/><text x="381.446px" y="90.524px" style="font-family:'Monaco';font-size:10px;">handleState</text><g transform="matrix(0.24,0,0,0.24,182.278,-46.0998)"><text x="830.848px" y="626.475px" style="font-family:'Arial-BoldMT', 'Arial', sans-serif;font-weight:700;font-size:37.5px;">État</text><text x="851.685px" y="665.202px" style="font-family:'ArialMT', 'Arial', sans-serif;font-size:37.5px;">Liste des souscrits</text><text x="851.685px" y="703.928px" style="font-family:'ArialMT', 'Arial', sans-serif;font-size:37.5px;">Liste des voisins connus</text><text x="830.848px" y="742.655px" style="font-family:'Arial-BoldMT', 'Arial', sans-serif;font-weight:700;font-size:37.5px;">Responsabilités</text><text x="851.685px" y="781.382px" style="font-family:'ArialMT', 'Arial', sans-serif;font-size:37.5px;">Maintenir la liste des souscrits</text><text x="851.685px" y="820.109px" style="font-family:'ArialMT', 'Arial', sans-serif;font-size:37.5px;">Distribuer les messages reçus aux souscrits</text><text x="851.685px" y="858.836px" style="font-family:'ArialMT', 'Arial', sans-serif;font-size:37.5px;">Créer la connection à un voisin si manquante</text></g><g transform="matrix(0.24,0,0,0.24,258.145,-165.706)"><text x="419.441px" y="1453.69px" style="font-family:'Monaco';font-size:37.5px;">sendRequests</text><text x="419.441px" y="1553.69px" style="font-family:'Monaco';font-size:37.5px;">registrations</text><text x="419.441px" y="1653.69px" style="font-family:'Monaco';font-size:37.5px;">unregistrations</text><text x="419.441px" y="1753.69px" style="font-family:'Monaco';font-size:37.5px;">receivedMessages</text></g><path d="M818.291,160.845c0,-6.68 -5.423,-12.103 -12.103,-12.103l-148.5,-0c-6.68,-0 -12.103,5.423 -12.103,12.103l-0,68.799c-0,6.68 5.423,12.103 12.103,12.103l148.5,0c6.68,0 12.103,-5.423 12.103,-12.103l0,-68.799Z" style="fill:#fff;stroke:#8b8b8b;stroke-width:2px;stroke-linecap:square;"/><path d="M280.612,284.486c0,-3.31 -2.686,-5.996 -5.996,-5.996l-163.76,-0c-3.309,-0 -5.996,2.686 -5.996,5.996l0,73.874c0,3.309 2.687,5.996 5.996,5.996l163.76,-0c3.31,-0 5.996,-2.687 5.996,-5.996l0,-73.874Z" style="fill:none;stroke:#8b8b8b;stroke-width:2px;stroke-linecap:square;"/><path d="M341.053,390.654c0,-4.852 -3.939,-8.791 -8.791,-8.791l-171.836,0c-4.852,0 -8.791,3.939 -8.791,8.791l-0,33.407c-0,4.852 3.939,8.791 8.791,8.791l171.836,0c4.852,0 8.791,-3.939 8.791,-8.791l0,-33.407Z" style="fill:none;stroke:#8b8b8b;stroke-width:2px;stroke-linecap:square;"/><path d="M839.475,61.399c0,-11.297 -9.171,-20.468 -20.468,-20.468l-768.492,0c-11.296,0 -20.468,9.171 -20.468,20.468l0,369.244c0,11.296 9.172,20.468 20.468,20.468l768.492,-0c11.297,-0 20.468,-9.172 20.468,-20.468l0,-369.244Z" style="fill:none;stroke:#8b8b8b;stroke-width:2px;stroke-linecap:square;stroke-dasharray:2,6,0,0;"/><rect x="16.353" y="114.677" width="41.285" height="14.766" style="fill:#fff;"/><rect x="15.75" y="161.168" width="41.285" height="14.766" style="fill:#fff;"/><rect x="16.933" y="209.995" width="41.285" height="14.766" style="fill:#fff;"/><rect x="16.933" y="275.733" width="41.285" height="14.766" style="fill:#fff;"/><rect x="627.062" y="219.124" width="41.285" height="13.456" style="fill:#fff;"/><text x="655.794px" y="169.16px" style="font-family:'Monaco';font-size:10px;">handleSends</text><text x="115.07px" y="298.907px" style="font-family:'Monaco';font-size:10px;">listenIncomingMessages</text><g transform="matrix(0.24,0,0,0.24,456.627,32.5361)"><text x="830.848px" y="626.475px" style="font-family:'Arial-BoldMT', 'Arial', sans-serif;font-weight:700;font-size:37.5px;">État</text><text x="851.685px" y="665.202px" style="font-family:'ArialMT', 'Arial', sans-serif;font-size:37.5px;">Connection à un voisin</text><text x="830.848px" y="703.928px" style="font-family:'Arial-BoldMT', 'Arial', sans-serif;font-weight:700;font-size:37.5px;">Responsabilités</text><text x="851.008px" y="742.655px" style="font-family:'ArialMT', 'Arial', sans-serif;font-size:37.5px;"><tspan x="851.008px 872.522px 885.01px " y="742.655px 742.655px 742.655px ">Tra</tspan>nsmettre les messages à ce voisin</text></g><g transform="matrix(0.24,0,0,0.24,-84.0981,162.284)"><text x="830.848px" y="626.475px" style="font-family:'Arial-BoldMT', 'Arial', sans-serif;font-weight:700;font-size:37.5px;">État</text><text x="851.685px" y="665.202px" style="font-family:'ArialMT', 'Arial', sans-serif;font-size:37.5px;">Connection d&apos;écoute</text><text x="830.848px" y="703.928px" style="font-family:'Arial-BoldMT', 'Arial', sans-serif;font-weight:700;font-size:37.5px;">Responsabilités</text><text x="851.008px" y="742.655px" style="font-family:'ArialMT', 'Arial', sans-serif;font-size:37.5px;"><tspan x="851.008px 872.522px 885.01px " y="742.655px 742.655px 742.655px ">Tra</tspan>nsmettre tout message</text><text x="851.685px" y="781.382px" style="font-family:'ArialMT', 'Arial', sans-serif;font-size:37.5px;">reçu au gestionnaire d&apos;état</text></g><g transform="matrix(0.24,0,0,0.24,-37.3237,250.794)"><text x="830.848px" y="626.475px" style="font-family:'Arial-BoldMT', 'Arial', sans-serif;font-weight:700;font-size:37.5px;">Responsabilités</text><text x="851.685px" y="665.202px" style="font-family:'ArialMT', 'Arial', sans-serif;font-size:37.5px;">Détecter une demande de cloture</text><text x="851.685px" y="703.928px" style="font-family:'ArialMT', 'Arial', sans-serif;font-size:37.5px;">et la propager en cloturant la connection</text></g><text x="20.236px" y="123.151px" style="font-family:'Monaco';font-size:9px;">Send()</text><text x="20.236px" y="172.255px" style="font-family:'Monaco';font-size:9px;">Register()</text><text x="20.236px" y="220.062px" style="font-family:'Monaco';font-size:9px;">Unregister()</text><text x="20.236px" y="285.801px" style="font-family:'Monaco';font-size:9px;">Close()</text><text x="631.239px" y="228.189px" style="font-family:'Monaco';font-size:9px;">sendChan</text><text x="55.847px" y="30.96px" style="font-family:'ArialMT', 'Arial', sans-serif;font-size:12px;">UDP</text><path d="M340.784,223.423l11.977,6.044l-12.022,5.956c3.011,-2.989 3.034,-8.989 0.045,-12Z" style="fill:#82b0ef;"/><path d="M92.131,217.227c85.783,0.279 110.833,0.946 130.311,6.159c7.36,1.97 39.617,5.613 120.72,6.046" style="fill:none;stroke:#82b0ef;stroke-width:2px;"/><path d="M340.775,198.002l11.96,6.079l-12.039,5.921c3.019,-2.98 3.059,-8.98 0.079,-12Z" style="fill:#82b0ef;"/><path d="M80.643,169.478c89.539,0.499 115.687,2.345 136.042,17.415c7.704,5.703 41.488,16.192 126.45,17.125" style="fill:none;stroke:#82b0ef;stroke-width:2px;"/><path d="M340.768,175.318l11.946,6.108l-12.054,5.891c3.027,-2.973 3.081,-8.972 0.108,-11.999Z" style="fill:#82b0ef;"/><path d="M58.214,120.692c96.894,0.762 125.194,3.987 147.246,30.567c8.37,10.088 45.132,28.638 137.654,30.08" style="fill:none;stroke:#82b0ef;stroke-width:2px;"/><path d="M615.067,220.175l11.995,6.009l-12.004,5.991c3.002,-2.998 3.007,-8.998 0.009,-12Z" style="fill:#82b0ef;"/><path d="M579.268,226.148c0,0 24.24,0.018 38.194,0.029" style="fill:none;stroke:#82b0ef;stroke-width:2px;"/><path d="M141.335,398.76l10.3,8.598l-13.058,3.08c3.609,-2.23 4.988,-8.069 2.758,-11.678Z" style="fill:#8d8d8d;"/><path d="M125.016,364.356c-1.043,10.854 -0.742,33.409 17.276,40.795" style="fill:none;stroke:#8d8d8d;stroke-width:2px;stroke-dasharray:2,6,0,0;"/><path d="M668.591,135.673l-3.033,13.069l-8.635,-10.268c3.617,2.217 9.451,0.816 11.668,-2.801Z" style="fill:#8d8d8d;"/><path d="M579.268,109.123c23.016,-1.797 72.202,-1.498 84.049,30.284" style="fill:none;stroke:#8d8d8d;stroke-width:2px;stroke-dasharray:2,6,0,0;"/></svg>